<svg t="1561799109955" class="icon" viewBox="0 0 1080 1024" version="1.1" 
  xmlns="http://www.w3.org/2000/svg" p-id="1519" width="200" height="200">
  <path d="M328.259143 860.390101c0-6.25768 3.12884-9.386521 9.443409-9.386521 6.25768 0 9.386521 3.12884 9.38652 9.386521 0 6.25768-3.12884 9.443409-9.38652 9.443408-6.25768 0-9.443409-3.185728-9.443409-9.443408z m-42.836667-10.467393c0-6.25768 3.12884-9.386521 9.386521-9.386521 6.997224 0 10.467393 3.12884 10.467392 9.386521 0 6.997224-3.470168 10.467393-10.467392 10.467393-6.25768 0-9.386521-3.470168-9.386521-10.467393zM525.888069 0.015929c72.475317 0 140.570258 13.766897 204.34171 41.300691A530.765077 530.765077 0 0 1 896.968519 153.613539a530.765077 530.765077 0 0 1 112.410695 166.73874 510.114732 510.114732 0 0 1 41.300691 204.398598c0 56.489788-8.533201 110.647168-25.599602 162.585916a532.813045 532.813045 0 0 1-71.110005 142.163121 516.087972 516.087972 0 0 1-109.224967 112.922688 518.591044 518.591044 0 0 1-139.09117 75.774822c-7.622993 1.4222-16.383745 1.70664-26.168482 1.023984-9.670961-0.682656-15.644201-6.940336-17.692169-18.773042a390.536147 390.536147 0 0 1-3.69772-33.450146 840.804699 840.804699 0 0 1-2.104856-42.893555l-1.023984-41.812683c-0.341328-13.254905-0.56888-22.982754-0.56888-29.297322 0-6.25768-1.13776-14.222001-3.583945-24.006738a369.544474 369.544474 0 0 0-17.749057-52.792067 109.338744 109.338744 0 0 0-6.82656-14.108225c-1.4222-1.4222 3.470168-2.958176 14.620217-4.721705 11.150049-1.70664 25.258274-5.063032 42.324675-9.9554 17.066401-4.83548 35.725666-11.832705 55.920908-20.877898 20.252129-9.102081 39.025171-21.048561 56.489787-36.066994 17.407729-15.018433 31.857282-33.450146 43.348659-55.408916 11.548265-21.95877 17.293953-48.639243 17.293954-79.984534 0-47.387707-2.8444-84.308022-8.362537-110.817831-5.575024-26.452922-11.548265-46.363723-17.805945-59.561741-7.679881-15.359761-16.383745-25.08761-26.168482-29.297322 4.209712-22.982754 7.395441-43.917539 9.443409-62.69058 1.4222-16.042417 1.592864-31.402178 0.56888-46.079283-1.080872-14.563329-5.461248-24.006738-13.084241-28.159562-7.679881-3.470168-19.000593-2.8444-34.019027 2.104856a382.970043 382.970043 0 0 0-46.477499 18.773041c-18.147273 9.102081-37.659859 20.252129-58.594644 33.450147a348.382136 348.382136 0 0 0-34.47413-9.386521 375.119498 375.119498 0 0 0-90.963919-10.467393c-18.773041 0-36.749651 1.080872-53.816051 3.12884-17.066401 2.104856-32.255498 4.209712-45.510404 6.257681-15.302873 2.8444-29.581762 5.97324-42.836667 9.443409-20.877897-11.832705-40.390483-21.95877-58.537756-30.321307a367.553394 367.553394 0 0 0-47.046379-18.773041c-15.359761-4.892368-26.50981-5.97324-33.450146-3.185728-7.679881 3.470168-12.401585 12.401585-14.108225 26.680474-1.70664 14.222001-2.27552 29.752426-1.592864 46.534387 0.739544 19.512585 2.446184 41.073139 5.233696 64.795437a171.119116 171.119116 0 0 0-26.168482 37.60297 221.635663 221.635663 0 0 0-26.111594 106.665008c0 32.027946 3.356392 60.301284 9.955401 84.64935 6.599008 24.461842 15.530425 45.510403 26.680474 63.25946 11.150049 17.805945 23.892962 32.76749 38.114963 44.941523 14.278889 12.230921 28.78533 22.186322 43.405547 29.809314 34.815458 18.147273 74.523285 28.557778 119.180368 31.34529-5.575024 6.25768-10.467393 12.230921-14.620217 17.805946a247.917921 247.917921 0 0 0-9.443409 14.108225c-2.787512 4.55104-4.152824 7.850545-4.152824 9.9554a116.222192 116.222192 0 0 1-2.104856 17.749057l-2.104856 10.467393a202.63507 202.63507 0 0 1-21.95877 7.281665c-6.25768 2.104856-13.198017 3.868384-20.877897 5.233696-7.679881 1.4222-15.359761 2.104856-23.039642 2.104856-7.622993 0-17.066401-3.98216-28.21645-12.003369a383.482035 383.482035 0 0 1-33.962138-27.704458 529.456653 529.456653 0 0 1-31.34529-30.833298 946.957714 946.957714 0 0 0-20.422794-21.446777 53.702276 53.702276 0 0 0-16.725073-8.874529 155.645579 155.645579 0 0 0-39.707827-8.362536 35.156786 35.156786 0 0 0-11.491377 0.511992 21.162337 21.162337 0 0 0-9.443408 8.874528c-2.047968 3.811496-0.341328 6.82656 5.233696 8.874529 2.8444 1.4222 6.82656 3.98216 12.060257 7.850544 5.233696 3.811496 10.638057 8.362537 16.213081 13.596233 5.575024 5.233696 10.808721 10.467393 15.644201 15.701089 4.892368 5.176808 8.362537 9.557185 10.467393 13.084241 2.104856 3.41328 5.233696 11.093161 9.386521 22.982754a138.692954 138.692954 0 0 0 58.025764 69.972245c15.701089 9.784737 36.806539 14.677105 63.25946 14.677105 18.147273 0 31.857282-0.170664 41.300691-0.56888 9.386521-0.28444 16.497521-0.796432 21.446777-1.535976v80.496525c0 4.209712-0.56888 8.931417-1.592864 14.108225a34.132802 34.132802 0 0 1-5.6888 13.653121 23.608522 23.608522 0 0 1-11.548265 8.305649 31.743506 31.743506 0 0 1-18.773041-0.511992 14.563329 14.563329 0 0 0-6.314569-1.023984 514.15378 514.15378 0 0 1-140.115153-75.83171A531.845949 531.845949 0 0 1 26.183842 688.417665 510.854276 510.854276 0 0 1 0.01536 524.807765c0-72.475317 13.766897-140.627146 41.300691-204.398598A530.765077 530.765077 0 0 1 153.612971 153.727315 529.115325 529.115325 0 0 1 320.92059 41.259732 513.812452 513.812452 0 0 1 525.944957 0.015929zM393.111467 899.073943a32.426162 32.426162 0 0 1 6.257681 2.104856c3.470168 2.104856 1.365312 3.470168-6.257681 4.152825v-6.257681z m-20.934785-46.022395c0-6.940336 3.12884-10.410505 9.443409-10.410505 6.25768 0 9.386521 3.470168 9.38652 10.410505 0 6.25768-3.12884 9.443409-9.38652 9.443409-6.25768 0-9.443409-3.12884-9.443409-9.443409z m-186.023773-104.503263c0-4.209712 2.389296-6.25768 7.281664-6.257681 4.83548 0 7.281665 2.047968 7.281665 6.257681 0 4.892368-2.446184 7.281665-7.281665 7.281664-4.892368 0-7.338553-2.389296-7.338552-7.281664z m69.972245 79.415653c0-6.25768 3.12884-9.386521 9.443409-9.38652 6.25768 0 9.386521 3.12884 9.38652 9.38652 0 6.997224-3.12884 10.467393-9.38652 10.467393-6.25768 0-9.443409-3.470168-9.443409-10.467393z m-39.707827-63.714564c4.892368 0 7.338553 2.389296 7.338553 7.281664s-2.446184 7.338553-7.338553 7.338553c-4.892368 0-7.338553-2.446184-7.338552-7.338553 0-4.892368 2.446184-7.338553 7.338552-7.338552z m10.467393 34.47413c0-6.25768 3.12884-9.386521 9.38652-9.38652 6.25768 0 9.443409 3.12884 9.443409 9.38652 0 6.940336-3.185728 10.467393-9.443409 10.467393-6.25768 0-9.386521-3.527056-9.38652-10.467393z" fill="#fff" p-id="1520"></path>
</svg>