<svg t="1561799066639" class="icon" viewBox="0 0 1024 1024" version="1.1" 
  xmlns="http://www.w3.org/2000/svg" p-id="1408" width="200" height="200">
  <path d="M337.526154 385.181538A28.356923 28.356923 0 0 0 367.064615 354.461538a27.569231 27.569231 0 0 0-29.144615-29.144615 33.870769 33.870769 0 0 0-35.446154 29.144615 33.083077 33.083077 0 0 0 35.446154 30.326154z m164.627692-59.864615a33.870769 33.870769 0 0 0-35.446154 29.144615 33.870769 33.870769 0 0 0 35.446154 30.326154 27.963077 27.963077 0 0 0 29.538462-30.326154 27.569231 27.569231 0 0 0-29.144616-29.144615zM708.923077 547.446154a26.781538 26.781538 0 0 0 29.144615-24.418462 27.569231 27.569231 0 0 0-29.144615-24.418461 25.206154 25.206154 0 0 0-23.236923 24.418461 25.993846 25.993846 0 0 0 23.236923 24.418462z m-129.181539 0a26.781538 26.781538 0 0 0 29.144616-24.418462 27.569231 27.569231 0 0 0-29.144616-24.418461 24.418462 24.418462 0 0 0 0 48.836923zM0 512A512 512 0 1 0 512 0 512 512 0 0 0 0 512z m630.153846-122.092308a194.166154 194.166154 0 0 0-200.073846 189.046154 170.929231 170.929231 0 0 0 6.301538 51.2 132.332308 132.332308 0 0 1-22.055384 0 389.12 389.12 0 0 1-82.707692-12.209231l-82.707693 41.353847 23.236923-72.073847a196.923077 196.923077 0 0 1-93.735384-161.083077c0-113.427692 105.944615-203.618462 236.307692-203.618461 115.790769 0 217.009231 72.073846 236.307692 168.172308h-22.055384z m215.827692 186.683077a182.744615 182.744615 0 0 1-82.707692 137.846154l18.116923 59.864615-64.590769-35.446153a286.72 286.72 0 0 1-70.892308 12.20923c-112.246154 0-201.255385-78.769231-201.255384-173.292307s89.009231-173.292308 201.255384-173.292308c104.763077 0 200.073846 78.769231 200.073846 171.716923z" fill="#04D102" p-id="1409"></path>
</svg>